# xmcd CD database file
#
# Track frame offsets:
#	162
#	44820
#	49385
#	78490
#	111075
#	115930
#	132807
#	156212
#	158362
#
# Disc length: 2201 seconds
#
# Revision: 0
# Processed by: cddbd v1.5.1PL0 Copyright (c) Steve Scherf et al.
# Submitted via: CDex 1.51
#
DISCID=72089709
DTITLE=Pastorius - Metheny - Bley - Ditmas - Jaco
DYEAR=1974
DGENRE=Jazz
TTITLE0=Vashkar
TTITLE1=Poconos
TTITLE2=Donkey
TTITLE3=Vampira
TTITLE4=Overtoned
TTITLE5=Jaco
TTITLE6=Batterie
TTITLE7=King Korn
TTITLE8=Blood
EXTD=YEAR: 1974
EXTT0=
EXTT1=
EXTT2=
EXTT3=
EXTT4=
EXTT5=
EXTT6=
EXTT7=
EXTT8=
PLAYORDER=
